HIERARCHY
ROOT Hips
{
 OFFSET 0.000000 0.000000 0.000000
 CHANNELS 6 Xposition Yposition Zposition Yrotation Xrotation Zrotation
 JOINT Chest
 {
  OFFSET 0.000000 9.585900 0.002600
  CHANNELS 3 Yrotation Xrotation Zrotation
  JOINT Chest2
  {
   OFFSET 0.000000 9.601200 -0.005300
   CHANNELS 3 Yrotation Xrotation Zrotation
   JOINT Chest3
   {
    OFFSET 0.000000 9.561800 0.000000
    CHANNELS 3 Yrotation Xrotation Zrotation
    JOINT Chest4
    {
     OFFSET 0.000000 9.552100 0.000000
     CHANNELS 3 Yrotation Xrotation Zrotation
     JOINT Neck
     {
      OFFSET 0.000000 14.453000 0.000000
      CHANNELS 3 Yrotation Xrotation Zrotation
      JOINT Head
      {
       OFFSET 0.000000 8.936500 -0.011300
       CHANNELS 3 Yrotation Xrotation Zrotation
       End Site
       {
        OFFSET 0.000000 17.073600 -0.006000
       }
      }
     }
     JOINT RightCollar
     {
      OFFSET -2.921100 9.558500 0.000000
      CHANNELS 3 Yrotation Xrotation Zrotation
      JOINT RightShoulder
      {
       OFFSET -13.519700 0.000000 0.000000
       CHANNELS 3 Yrotation Xrotation Zrotation
       JOINT RightElbow
       {
        OFFSET 0.000000 -29.696600 0.000000
        CHANNELS 3 Yrotation Xrotation Zrotation
        JOINT RightWrist
        {
         OFFSET 0.000000 -24.004700 0.000000
         CHANNELS 3 Yrotation Xrotation Zrotation
         End Site
         {
          OFFSET 0.000000 -17.728500 0.000000
         }
        }
       }
      }
     }
     JOINT LeftCollar
     {
      OFFSET 2.921100 9.558500 0.000000
      CHANNELS 3 Yrotation Xrotation Zrotation
      JOINT LeftShoulder
      {
       OFFSET 13.519700 0.000000 0.000000
       CHANNELS 3 Yrotation Xrotation Zrotation
       JOINT LeftElbow
       {
        OFFSET 0.000000 -29.696600 0.000000
        CHANNELS 3 Yrotation Xrotation Zrotation
        JOINT LeftWrist
        {
         OFFSET 0.000000 -24.004700 0.000000
         CHANNELS 3 Yrotation Xrotation Zrotation
         End Site
         {
          OFFSET 0.000000 -17.728500 0.000000
         }
        }
       }
      }
     }
    }
   }
  }
 }
 JOINT RightHip
 {
  OFFSET -7.771700 -0.012900 -0.001300
  CHANNELS 3 Yrotation Xrotation Zrotation
  JOINT RightKnee
  {
   OFFSET 0.000000 -40.869800 0.001200
   CHANNELS 3 Yrotation Xrotation Zrotation
   JOINT RightAnkle
   {
    OFFSET 0.000000 -39.717900 0.002100
    CHANNELS 3 Yrotation Xrotation Zrotation
    JOINT RightToe
    {
     OFFSET 0.000000 -4.965400 11.033500
     CHANNELS 3 Yrotation Xrotation Zrotation
     End Site
     {
      OFFSET 0.000000 -1.423100 5.872300
     }
    }
   }
  }
 }
 JOINT LeftHip
 {
  OFFSET 7.771700 -0.012900 -0.001300
  CHANNELS 3 Yrotation Xrotation Zrotation
  JOINT LeftKnee
  {
   OFFSET 0.000000 -40.869800 0.001200
   CHANNELS 3 Yrotation Xrotation Zrotation
   JOINT LeftAnkle
   {
    OFFSET 0.000000 -39.717900 0.002100
    CHANNELS 3 Yrotation Xrotation Zrotation
    JOINT LeftToe
    {
     OFFSET 0.000000 -4.965400 11.033500
     CHANNELS 3 Yrotation Xrotation Zrotation
     End Site
     {
      OFFSET 0.000000 -1.423100 5.872300
     }
    }
   }
  }
 }
}
MOTION
Frames: 11
Frame Time: 0.008333
-19.473288 58.198628 72.743660 176.326090 -31.704505 -3.207665 3.160228 20.768606 5.358164 0.283463 2.823907 0.373542 0.471912 4.602062 0.616627 2.189176 17.978299 2.699000 0.082310 16.373134 -0.740109 0.412550 -5.410225 -1.408544 2.487557 -1.860814 -1.220650 10.404202 -16.452813 -13.538970 26.080811 -61.502889 10.268257 22.638677 -1.636756 -36.387412 -6.611663 -3.443783 -2.935654 0.506972 -13.353447 -3.900629 -94.119956 -45.201919 54.579095 -20.915949 1.745258 32.886614 5.257777 -39.715891 1.057132 -4.683500 66.142540 -8.169586 4.982644 9.436825 9.117630 -0.861059 -0.768136 -0.216135 -7.232814 -46.893560 3.754325 25.648332 58.670953 25.207676 -6.482782 46.778596 6.778770 -0.069514 -19.327634 -8.596547
-19.477284 58.194323 72.738286 176.332183 -31.676998 -3.202773 3.127996 20.758988 5.328023 0.295306 2.812637 0.377067 0.472881 4.593944 0.614717 2.198435 17.973533 2.701462 0.084223 16.368314 -0.739919 0.414007 -5.450567 -1.416764 2.488239 -1.877032 -1.224305 10.425472 -16.499595 -13.540709 26.027593 -61.275230 10.366112 22.644335 -1.738980 -36.475799 -6.610920 -3.468500 -2.939230 0.517302 -13.337528 -3.894482 -94.090194 -45.208441 54.536992 -20.905110 1.903685 32.591955 5.244104 -39.734231 1.053428 -4.686200 66.138228 -8.184742 4.978245 9.443041 9.115651 -0.848774 -1.342806 -0.153488 -7.247260 -46.908299 3.731677 25.654203 58.666932 25.230432 -6.465940 46.739676 6.774651 -0.062362 -19.457881 -8.611666
-19.483315 58.189450 72.735419 176.334265 -31.634999 -3.183202 3.111506 20.720677 5.300626 0.283755 2.814148 0.371041 0.465167 4.584634 0.601349 2.201032 17.951268 2.688461 0.092358 16.337150 -0.742509 0.433014 -5.451706 -1.410899 2.510615 -1.881592 -1.214789 10.445353 -16.523577 -13.534295 25.963774 -61.136772 10.454104 22.616465 -1.726503 -36.520570 -6.590844 -3.461674 -2.925709 0.561506 -13.444094 -3.914021 -93.917705 -45.223677 54.292997 -20.928154 2.045694 32.311773 5.245355 -39.767897 1.030926 -4.687264 66.134380 -8.197836 4.966875 9.445837 9.110998 -0.832584 -2.103529 -0.069003 -7.239111 -46.934016 3.692328 25.665400 58.648751 25.248295 -6.451622 46.702101 6.791875 -0.057436 -19.571270 -8.631617
-19.488847 58.185109 72.733774 176.318151 -31.589479 -3.156245 3.106196 20.683892 5.267310 0.284285 2.809882 0.369642 0.471151 4.580313 0.598154 2.205097 17.946017 2.691687 0.090576 16.313130 -0.753158 0.437274 -5.453581 -1.401869 2.512944 -1.916610 -1.228543 10.450952 -16.513716 -13.512288 25.928536 -61.090960 10.493725 22.582878 -1.677772 -36.528589 -6.590267 -3.462945 -2.920693 0.573449 -13.526303 -3.931257 -93.761626 -45.241643 54.106924 -20.950294 2.200703 32.041952 5.252282 -39.806146 1.017759 -4.676405 66.127578 -8.206999 4.951642 9.449186 9.104703 -0.817411 -2.709071 0.001621 -7.206416 -46.959336 3.651060 25.627397 58.640896 25.230089 -6.435898 46.638155 6.795370 -0.044609 -19.650610 -8.652046
-19.493774 58.185038 72.727055 176.300052 -31.583226 -3.129165 3.114291 20.695948 5.231169 0.285683 2.802365 0.366411 0.475403 4.568715 0.605283 2.206054 17.941639 2.695511 0.090023 16.288304 -0.766277 0.434377 -5.507983 -1.403886 2.514882 -1.937136 -1.233278 10.460109 -16.517266 -13.500750 25.883534 -60.977943 10.555852 22.594728 -1.733374 -36.581944 -6.592665 -3.489699 -2.928900 0.569333 -13.546790 -3.926137 -93.560188 -45.286370 53.934398 -21.012502 2.342330 31.788495 5.260646 -39.803753 1.011457 -4.670382 66.123182 -8.220517 4.935817 9.459429 9.097865 -0.799945 -3.204341 0.059667 -7.152078 -46.941614 3.597098 25.548321 58.649568 25.178259 -6.390147 46.546678 6.816390 -0.034212 -19.705238 -8.679708
-19.501300 58.185683 72.720259 176.299291 -31.577608 -3.095770 3.104494 20.696943 5.189951 0.285486 2.799220 0.367764 0.478844 4.566586 0.596184 2.210457 17.930305 2.688356 0.088690 16.270881 -0.767890 0.431996 -5.530967 -1.393307 2.509823 -1.935943 -1.213543 10.529828 -16.617228 -13.525280 25.734473 -60.721917 10.729483 22.589777 -1.793443 -36.680189 -6.616761 -3.543056 -2.952317 0.558253 -13.549554 -3.899703 -93.324010 -45.316413 53.729701 -21.061233 2.497833 31.566576 5.271796 -39.799750 0.981261 -4.669201 66.125329 -8.235481 4.915419 9.463927 9.094957 -0.776026 -3.601571 0.102819 -7.085203 -46.922325 3.513884 25.505572 58.636473 25.152631 -6.351768 46.475888 6.867279 -0.026900 -19.765115 -8.715813
-19.509443 58.186152 72.714765 176.300756 -31.564268 -3.061518 3.094846 20.692459 5.142966 0.287425 2.797848 0.363312 0.479914 4.562092 0.595956 2.221359 17.918830 2.659848 0.088429 16.259056 -0.738559 0.430143 -5.544683 -1.383777 2.495645 -1.963186 -1.181418 10.562001 -16.637876 -13.520264 25.674317 -60.571559 10.820398 22.565149 -1.791527 -36.742046 -6.648836 -3.564119 -2.928752 0.535844 -13.600465 -3.905851 -93.033097 -45.340706 53.481449 -21.114070 2.653052 31.379947 5.272335 -39.802715 0.956088 -4.668745 66.127532 -8.260014 4.894286 9.459554 9.083687 -0.749727 -3.913001 0.146101 -7.012130 -46.912683 3.421523 25.471059 58.618912 25.139289 -6.311564 46.409632 6.925295 -0.020172 -19.821774 -8.754928
-19.515308 58.186784 72.709934 176.312379 -31.548402 -3.048257 3.084075 20.687754 5.109543 0.288823 2.795335 0.361068 0.477731 4.555586 0.604950 2.222565 17.916015 2.661241 0.087866 16.253254 -0.738038 0.424308 -5.607470 -1.401850 2.490795 -2.031457 -1.219426 10.582916 -16.625398 -13.479604 25.625285 -60.449703 10.898254 22.559086 -1.824903 -36.799652 -6.669490 -3.599309 -2.946498 0.511890 -13.633737 -3.907380 -92.771195 -45.357361 53.272073 -21.146024 2.806623 31.218655 5.270686 -39.808817 0.936034 -4.661155 66.127880 -8.261079 4.879663 9.464908 9.076635 -0.733038 -4.171496 0.178619 -6.971453 -46.910774 3.358762 25.452806 58.600675 25.141391 -6.290463 46.373651 6.963531 -0.003791 -19.897777 -8.787521
-19.522909 58.187923 72.703908 176.309478 -31.540653 -3.018449 3.080596 20.690345 5.069178 0.287755 2.789474 0.365832 0.479178 4.554163 0.604346 2.229969 17.914653 2.643820 0.085099 16.228866 -0.739078 0.419713 -5.653055 -1.402913 2.481546 -2.063541 -1.215023 10.597009 -16.633334 -13.464482 25.611747 -60.344361 10.950862 22.547578 -1.832152 -36.843737 -6.696395 -3.635622 -2.945196 0.481113 -13.665523 -3.908940 -92.499894 -45.368992 53.066655 -21.175664 2.946017 31.081503 5.294435 -39.808278 0.899653 -4.645463 66.131402 -8.251258 4.866484 9.465647 9.068562 -0.720571 -4.072725 0.177166 -6.893297 -46.902525 3.264562 25.441900 58.582611 25.154685 -6.216483 46.329833 7.053150 -0.012611 -19.968755 -8.830006
-19.529912 58.188232 72.698694 176.296929 -31.527319 -2.988665 3.084078 20.682509 5.038813 0.288048 2.788247 0.363920 0.482759 4.555018 0.593697 2.247437 17.912281 2.609091 0.076526 16.183844 -0.742564 0.405686 -5.736697 -1.406880 2.464577 -2.097829 -1.179410 10.594946 -16.620536 -13.440046 25.618004 -60.297640 10.966609 22.550211 -1.814174 -36.855514 -6.731545 -3.669362 -2.912943 0.448864 -13.696017 -3.913862 -92.236691 -45.368514 52.868828 -21.198204 3.075465 30.967514 5.314012 -39.812046 0.879616 -4.629620 66.130133 -8.252011 4.850112 9.458208 9.056895 -0.705872 -3.374540 0.120579 -6.813201 -46.902272 3.177362 25.458322 58.556533 25.195183 -6.157430 46.303957 7.134273 -0.020121 -20.049872 -8.867351
-19.533079 58.187027 72.695412 176.296704 -31.500701 -2.988756 3.085312 20.660975 5.033821 0.295625 2.795668 0.352855 0.481154 4.548465 0.595620 2.252362 17.906908 2.605941 0.068828 16.163668 -0.753612 0.396437 -5.777567 -1.414714 2.456319 -2.122336 -1.177001 10.609052 -16.640594 -13.436906 25.631804 -60.176730 11.011665 22.570177 -1.819865 -36.880142 -6.750005 -3.695421 -2.912787 0.418202 -13.732584 -3.930273 -91.992951 -45.354764 52.680012 -21.214942 3.200225 30.876445 5.306001 -39.831037 0.888371 -4.628049 66.125216 -8.263454 4.845172 9.459526 9.053737 -0.695158 -2.517425 0.037932 -6.806246 -46.923657 3.168067 25.507282 58.541571 25.237409 -6.143028 46.301176 7.181674 -0.007117 -20.146458 -8.891954
